<svg width="1066" height="500" viewBox="0 0 1066 500" fill="none" xmlns="http://www.w3.org/2000/svg">
<path fill-rule="evenodd" clip-rule="evenodd" d="M816 0C954.071 0 1066 111.929 1066 250C1066 388.071 954.071 500 816 500C677.929 500 566 388.071 566 250C566 111.929 677.929 0 816 0ZM816 75C719.35 75 641 153.35 641 250C641 346.65 719.35 425 816 425C912.65 425 991 346.65 991 250C991 153.35 912.65 75 816 75Z" fill="white"/>
<path d="M250 36.5H816.001" stroke="white" stroke-width="73"/>
<path d="M93.1371 156.777C96.3446 159.984 96.9642 164.935 94.8604 168.954C82.1758 193.185 75 220.754 75 250C75 346.65 153.35 425 250 425C279.246 425 306.814 417.823 331.045 405.139C335.064 403.035 340.015 403.654 343.222 406.862L383.61 447.25C388.023 451.662 387.366 459.005 382.07 462.306C343.747 486.196 298.486 500 250 500C111.929 500 0 388.071 0 250C0 201.514 13.8027 156.252 37.6933 117.929C40.9943 112.633 48.3367 111.976 52.749 116.389L93.1371 156.777ZM250 0C388.071 0 500 111.929 500 250C500 298.486 486.196 343.747 462.306 382.07C459.005 387.366 451.662 388.023 447.25 383.61L406.862 343.222C403.654 340.015 403.035 335.064 405.139 331.045C417.823 306.814 425 279.246 425 250C425 153.35 346.65 75 250 75C220.754 75 193.185 82.1758 168.954 94.8604C164.935 96.9642 159.984 96.3446 156.777 93.1371L116.389 52.749C111.976 48.3367 112.633 40.9943 117.929 37.6933C156.252 13.8027 201.514 0 250 0Z" fill="white"/>
<rect x="47.9668" y="101" width="75" height="495.225" rx="10" transform="rotate(-45 47.9668 101)" fill="#0077FF"/>
</svg>
